<svg width="21" height="25" viewBox="0 0 21 25" fill="none" xmlns="http://www.w3.org/2000/svg">
<path d="M17.4889 23.9933C16.1383 25.3093 14.6482 25.1041 13.2278 24.4836C11.7177 23.8506 10.3372 23.8106 8.74242 24.4836C6.75639 25.3443 5.70233 25.0941 4.50622 23.9933C-2.24678 17.0129 -1.25003 6.37985 6.42497 5.97955C8.28641 6.07963 9.58966 7.01284 10.6861 7.0904C12.3158 6.75764 13.8757 5.80442 15.62 5.92951C17.7157 6.09964 19.2831 6.93027 20.3297 8.42391C16.0187 11.0259 17.0404 16.7302 21 18.3314C20.2076 20.4205 19.1909 22.4846 17.4864 24.0108L17.4889 23.9933ZM10.5366 5.90449C10.3347 2.80213 12.8391 0.25019 15.7197 0C16.1159 3.57772 12.4802 6.25476 10.5366 5.90449Z" fill="black"/>
</svg>
