<svg width="20" height="18" viewBox="0 0 20 18" fill="none" xmlns="http://www.w3.org/2000/svg">
<path d="M10 18C1.765 18 0 16.4115 0 9C0 6.96306 0.133318 5.36595 0.497629 4.12078C1.43044 5.03897 2.60755 6.1431 3.88606 7.12657C5.69935 8.52141 7.89544 9.81818 10 9.81818C12.1046 9.81818 14.3007 8.52141 16.1139 7.12657C17.3925 6.1431 18.5696 5.03897 19.5024 4.12078C19.8667 5.36595 20 6.96306 20 9C20 16.4115 18.235 18 10 18Z" fill="#0B0B0B" fill-opacity="0.3"/>
<path d="M18.7761 2.51436C17.7997 3.49144 16.5045 4.74736 15.0861 5.83847C13.2993 7.21286 11.4954 8.18182 10 8.18182C8.50456 8.18182 6.70065 7.21286 4.91394 5.83847C3.4955 4.74736 2.20035 3.49144 1.22388 2.51436C2.54742 0.550308 5.153 0 10 0C14.847 0 17.4526 0.550308 18.7761 2.51436Z" fill="#0B0B0B" fill-opacity="0.3"/>
</svg>
