<svg width="32" height="32" viewBox="0 0 32 32" fill="none" xmlns="http://www.w3.org/2000/svg">
<path d="M16 32C12.8355 32 9.74207 31.0616 7.11088 29.3035C4.4797 27.5454 2.42894 25.0466 1.21793 22.1229C0.00693257 19.1993 -0.309921 15.9823 0.307443 12.8786C0.924806 9.77486 2.44866 6.92394 4.6863 4.6863C6.92394 2.44866 9.77486 0.924806 12.8786 0.307443C15.9823 -0.309921 19.1993 0.00693257 22.1229 1.21793C25.0466 2.42894 27.5454 4.4797 29.3035 7.11088C31.0616 9.74207 32 12.8355 32 16C31.9951 20.242 30.3078 24.3087 27.3083 27.3083C24.3087 30.3078 20.242 31.9951 16 32ZM9.6 12.8V16H12.8V25.6H17.6V16H20.512L20.8 12.8H17.6V11.4667C17.6 10.728 17.7333 10.4 18.4933 10.4H20.8V6.40001H16.9547C14.1547 6.40001 12.8013 7.60801 12.8013 10.092V12.8H9.6Z" fill="#387000"/>
</svg>
