<svg width="25" height="25" viewBox="0 0 25 25" fill="none" xmlns="http://www.w3.org/2000/svg">
<path d="M25 12.75C25 11.75 24.9375 11 24.75 10.1875H12.75V14.8125H19.75C19.625 15.9375 18.8125 17.6875 17.125 18.875V19L20.9375 21.875H21.1875C23.625 19.8125 25 16.5625 25 12.75Z" fill="#4285F4"/>
<path d="M12.75 25C16.1875 25 19.0625 23.875 21.1875 22L17.1875 18.9375C16.125 19.6875 14.6875 20.1875 12.75 20.1875C9.375 20.1875 6.5 18 5.5 15H5.375L1.4375 18L1.375 18.125C3.4375 22.1875 7.75 25 12.75 25Z" fill="#34A853"/>
<path d="M5.5 15C5.25 14.25 5.0625 13.375 5.0625 12.5C5.0625 11.625 5.1875 10.8125 5.5 10V9.8125L1.5 6.75L1.375 6.875C0.5 8.5625 0 10.5 0 12.5C0 14.5 0.5 16.4375 1.375 18.125L5.5 15Z" fill="#FBBC05"/>
<path d="M12.75 4.8125C15.125 4.8125 16.75 5.8125 17.6875 6.6875L21.3125 3.25C19.0625 1.25 16.1875 0 12.75 0C7.75 0 3.4375 2.8125 1.375 6.875L5.5 10C6.5 7 9.375 4.8125 12.75 4.8125Z" fill="#EB4335"/>
</svg>
