<svg width="32" height="32" viewBox="0 0 32 32" fill="none" xmlns="http://www.w3.org/2000/svg">
<path d="M16 32C12.8355 32 9.74207 31.0616 7.11088 29.3035C4.4797 27.5454 2.42894 25.0466 1.21793 22.1229C0.00693257 19.1993 -0.309921 15.9823 0.307443 12.8786C0.924806 9.77486 2.44866 6.92394 4.6863 4.6863C6.92394 2.44866 9.77486 0.924806 12.8786 0.307443C15.9823 -0.309921 19.1993 0.00693257 22.1229 1.21793C25.0466 2.42894 27.5454 4.4797 29.3035 7.11088C31.0616 9.74207 32 12.8355 32 16C31.9954 20.2421 30.3082 24.3091 27.3086 27.3086C24.3091 30.3082 20.2421 31.9954 16 32ZM19.3333 15.116C20.836 15.116 21.1507 16.4493 21.1507 17.5573V23.3333H24.7387V17.1427C24.7387 14.1 23.1947 12.284 20.6053 12.284C19.9552 12.2595 19.3106 12.4126 18.7409 12.7269C18.1712 13.0413 17.698 13.5049 17.372 14.068V12.5333H13.784C13.8307 13.532 13.784 23.2307 13.784 23.3333H17.372V17.304C17.3565 17.0076 17.3967 16.7109 17.4907 16.4293C17.6245 16.0469 17.8736 15.7153 18.2035 15.4801C18.5335 15.245 18.9282 15.1178 19.3333 15.116ZM8.21067 12.5333V23.3333H11.8V12.5333H8.21067ZM10.028 7.33334C9.78287 7.33027 9.53953 7.37552 9.31189 7.4665C9.08424 7.55748 8.87674 7.6924 8.70124 7.86357C8.52573 8.03474 8.38566 8.2388 8.28903 8.46411C8.19239 8.68941 8.14107 8.93154 8.13801 9.17667C8.13494 9.42181 8.18019 9.66514 8.27117 9.89279C8.36214 10.1204 8.49707 10.3279 8.66824 10.5034C8.83941 10.6789 9.04347 10.819 9.26877 10.9157C9.49407 11.0123 9.7362 11.0636 9.98134 11.0667H10C10.2451 11.0682 10.4882 11.0215 10.7153 10.9292C10.9423 10.8368 11.149 10.7006 11.3235 10.5284C11.4979 10.3562 11.6367 10.1513 11.732 9.92543C11.8273 9.69956 11.8771 9.45714 11.8787 9.212C11.8802 8.96687 11.8335 8.72383 11.7412 8.49675C11.6488 8.26967 11.5126 8.06301 11.3404 7.88856C11.1682 7.71411 10.9633 7.57529 10.7374 7.48002C10.5116 7.38476 10.2691 7.33491 10.024 7.33334H10.028Z" fill="#387000"/>
</svg>
