<svg width="20" height="20" viewBox="0 0 20 20" fill="none" xmlns="http://www.w3.org/2000/svg">
<path d="M8.33333 12.5C8.33333 13.4205 9.07952 14.1667 10 14.1667C10.9205 14.1667 11.6667 13.4205 11.6667 12.5C11.6667 11.5795 10.9205 10.8333 10 10.8333C9.07952 10.8333 8.33333 11.5795 8.33333 12.5Z" fill="#0B0B0B" fill-opacity="0.3"/>
<path fill-rule="evenodd" clip-rule="evenodd" d="M13.9911 1.46049C15.0403 2.39308 15.7358 3.74521 15.8238 5.46024C19.1407 6.24353 20 8.19054 20 12.5C20 18.6762 18.235 20 10 20C1.765 20 0 18.6762 0 12.5C0 8.19054 0.859291 6.24353 4.17615 5.46024C4.26423 3.74521 4.9597 2.39308 6.00886 1.46049C7.11764 0.474914 8.57244 0 10 0C11.4276 0 12.8824 0.474914 13.9911 1.46049ZM10 5C8.38793 5 7.02381 5.05073 5.87232 5.17865C6.00779 4.07798 6.48449 3.26764 7.11614 2.70617C7.88236 2.02509 8.92756 1.66667 10 1.66667C11.0724 1.66667 12.1176 2.02509 12.8839 2.70617C13.5155 3.26764 13.9922 4.07798 14.1277 5.17865C12.9762 5.05073 11.6121 5 10 5ZM6.66667 12.5C6.66667 14.3409 8.15905 15.8333 10 15.8333C11.8409 15.8333 13.3333 14.3409 13.3333 12.5C13.3333 10.6591 11.8409 9.16667 10 9.16667C8.15905 9.16667 6.66667 10.6591 6.66667 12.5Z" fill="#0B0B0B" fill-opacity="0.3"/>
</svg>
