<svg width="20" height="20" viewBox="0 0 20 20" fill="none" xmlns="http://www.w3.org/2000/svg">
  <path d="M10 2C6.68629 2 4 4.68629 4 8C4 9.87717 4.84285 11.5899 6.17157 12.8284C4.67683 13.4627 3.5 14.965 3.5 16.75V18H16.5V16.75C16.5 14.965 15.3232 13.4627 13.8284 12.8284C15.1571 11.5899 16 9.87717 16 8C16 4.68629 13.3137 2 10 2ZM8 8C8 6.89543 8.89543 6 10 6C11.1046 6 12 6.89543 12 8C12 9.10457 11.1046 10 10 10C8.89543 10 8 9.10457 8 8ZM6 16.25C6 15.0074 7.00736 14 8.25 14H11.75C12.9926 14 14 15.0074 14 16.25V16.5H6V16.25Z" fill="#0B0B0B" fill-opacity="0.3"/>
</svg>
