<svg width="32" height="32" viewBox="0 0 32 32" fill="none" xmlns="http://www.w3.org/2000/svg">
<path d="M16 32C12.8355 32 9.74207 31.0616 7.11088 29.3035C4.4797 27.5454 2.42894 25.0466 1.21793 22.1229C0.00693257 19.1993 -0.309921 15.9823 0.307443 12.8786C0.924806 9.77486 2.44866 6.92394 4.6863 4.6863C6.92394 2.44866 9.77486 0.924806 12.8786 0.307443C15.9823 -0.309921 19.1993 0.00693257 22.1229 1.21793C25.0466 2.42894 27.5454 4.4797 29.3035 7.11088C31.0616 9.74207 32 12.8355 32 16C31.9951 20.242 30.3078 24.3087 27.3083 27.3083C24.3087 30.3078 20.242 31.9951 16 32ZM7.20001 22.832C9.00124 23.9871 11.0962 24.6007 13.236 24.6C14.7325 24.6312 16.2191 24.351 17.6016 23.7772C18.9841 23.2034 20.2322 22.3485 21.2667 21.2667C22.3238 20.1485 23.1481 18.8314 23.6917 17.3919C24.2353 15.9523 24.4874 14.4191 24.4333 12.8813C25.2065 12.327 25.8728 11.6372 26.4 10.8453C25.6798 11.1647 24.9157 11.3741 24.1333 11.4667C24.9563 10.9748 25.5724 10.2005 25.8667 9.288C25.0932 9.74696 24.2467 10.0699 23.364 10.2427C22.7703 9.61112 21.985 9.19289 21.1296 9.05272C20.2742 8.91256 19.3965 9.05828 18.6323 9.46733C17.8681 9.87638 17.2601 10.5259 16.9023 11.3155C16.5446 12.105 16.4571 12.9904 16.6533 13.8347C15.0876 13.7538 13.5561 13.3459 12.1576 12.6373C10.7591 11.9286 9.52447 10.9348 8.53334 9.72001C8.03055 10.5874 7.87671 11.6136 8.10305 12.5903C8.32939 13.5669 8.91895 14.4209 9.752 14.9787C9.12755 14.9576 8.51703 14.7885 7.97067 14.4853C7.96117 15.4038 8.27178 16.2969 8.84916 17.0113C9.42654 17.7256 10.2346 18.2167 11.1347 18.4C10.7973 18.4903 10.4493 18.5351 10.1 18.5333C9.84989 18.5333 9.60034 18.5096 9.35467 18.4627C9.6055 19.2463 10.0954 19.9317 10.7557 20.4226C11.4159 20.9136 12.2134 21.1854 13.036 21.2C11.6377 22.2917 9.91535 22.8861 8.14134 22.8893C7.82671 22.8886 7.5124 22.8694 7.20001 22.832Z" fill="#387000"/>
</svg>
